<?xml version="1.0" encoding="UTF-8"?>
<svg width="249px" height="44px" viewBox="0 0 249 44" version="1.1" xmlns="http://www.w3.org/2000/svg" xmlns:xlink="http://www.w3.org/1999/xlink">
    <title>A1664182-C15C-4FEE-BFE2-C564EE858DA1</title>
    <g id="Symbols" stroke="none" stroke-width="1" fill="none" fill-rule="evenodd">
        <g id="Group-20">
            <path d="M202.873242,18 L202.873242,35.7112236 C202.873242,38.5494338 203.936974,40.7067815 206.862149,40.7067815 C208.298594,40.7067815 209.895429,39.8550618 211.0118,38.890415 C212.501943,37.584787 212.18187,36.9035579 212.18187,34.9163341 L212.18187,34.9163341 L212.181388,22.8268602 C212.166481,19.5036093 211.785718,18.8501097 208.298594,18.7941562 L208.298594,18.7941562 L208.298594,18 L216.703526,18 L216.703944,36.88892 C216.715608,39.6803656 216.991416,40.7040093 220,40.5931211 L220,40.5931211 L220,41.387644 C217.926588,42.0688731 215.053346,43.0903501 212.501943,44 L212.501943,44 L212.501943,39.1177358 L211.383452,40.4226305 C210.215149,41.7861887 208.033632,44 204.576062,44 C200.320427,44 198.352646,40.8200753 198.352646,35.9381778 L198.352646,35.9381778 L198.352646,22.939461 C198.352646,19.5329488 197.926941,18.7934229 195,18.7941562 L195,18.7941562 L195,18 L202.873242,18 Z M125.781535,18 C132.983274,18 138,22.9441623 138,30.22244 C138,37.4440243 133.365135,44 125.781535,44 C118.800072,44 114,38.0543748 114,31.3319073 C114,23.9441899 118.254091,18 125.781535,18 Z M186.134282,4 L186.134282,38.687947 C186.134282,41.0593498 186.887617,42.0295008 190,42.2460959 L190,42.2460959 L190,43 L178,43 L178,42.2460959 C181.113384,42.0295008 181.866719,41.0593498 181.866719,38.687947 L181.866719,38.687947 L181.866719,10.5779441 C181.866719,10.5779441 181.869715,10.5240184 181.871132,10.4296484 L181.871502,10.2594454 C181.863018,9.40506027 181.691182,7.12669982 180.0996,7.12669982 L180.0996,7.12669982 L180.0996,6.37175103 C182.509337,5.88563087 183.924967,4.86220167 186.134282,4 L186.134282,4 Z M63.0739979,17 C65.0783792,17 66.2595142,18.3048947 65.9514365,20.7471268 C65.7972271,21.9372612 64.9238286,22.5070297 63.845045,22.5070297 C62.0477546,22.5070297 61.6874778,20.519806 60.4029679,20.519806 C59.3770658,20.519806 57.2184751,23.3015526 57.2184751,24.9463286 L57.2184751,24.9463286 L57.2184751,38.458717 C57.2184751,40.9548461 57.9884987,41.9777897 61.0709813,42.2054771 L61.0709813,42.2054771 L61.0709813,43 L49,42.9989001 L49,42.2054771 C52.0818002,41.9777897 52.8525062,40.9548461 52.8525062,38.458717 L52.8525062,38.458717 L52.8525062,26.0821993 C52.8525062,20.6327331 52.0818002,19.9518706 49,20.9172507 L49,20.9172507 L49,20.0090674 L57.2184751,17 L57.2184751,22.109585 C58.2454007,20.1795581 60.5060016,17 63.0739979,17 Z M99.1849828,17 C104.785218,17 105.608816,21.708988 105.714019,26.3941292 L105.722506,26.8785199 C105.723549,26.9591728 105.72442,27.0397701 105.72514,27.1202876 L105.727811,27.6022399 L105.727811,27.6022399 L105.728098,27.8421335 L105.728098,38.4594968 C105.728098,40.9565352 106.506925,41.9780843 108.99931,42.2061545 L108.99931,42.2061545 L109,43 L98.0429557,43 L98.0429557,42.2061545 C100.535341,41.9780843 101.314168,40.9565352 101.314168,38.4594968 L101.314168,38.4594968 L101.314168,26.9338862 C101.366251,21.4844023 100.535341,20.0085463 97.2634386,20.0085463 C94.8745291,20.0085463 92.9015919,21.3711006 91.7071372,23.4717662 L91.7071372,23.4717662 L91.7071372,38.4594968 C91.7071372,40.9565352 92.4859644,41.9780843 94.9780048,42.2061545 L94.9780048,42.2061545 L94.9780048,43 L84.0213054,43 L84.0213054,42.2061545 C86.5136906,41.9780843 87.2932077,40.9565352 87.2932077,38.4594968 L87.2932077,38.4594968 L87.2932077,26.6511818 C87.3442558,23.7552039 87.1369594,20.0085463 83.7094985,20.0085463 C81.5278854,20.0085463 78.9313346,21.3711006 77.6854869,23.3569978 L77.6854869,23.3569978 L77.6854869,38.4594968 C77.6854869,40.9565352 78.4643141,41.9780843 80.9570443,42.2061545 L80.9570443,42.2061545 L80.9570443,43 L70,43 L70,42.2061545 C72.4920403,41.9780843 73.2712125,40.9565352 73.2712125,38.4594968 L73.2712125,38.4594968 L73.2712125,24.7199188 C73.4278058,21.5412365 72.6482887,20.9171603 70,20.9171603 L70,20.9171603 L70,19.9513454 L77.6854869,17 L77.6854869,20.7470243 C77.6854869,22.1095786 78.7240382,20.3495515 79.5032104,19.7240086 C81.320589,18.2488859 83.4501194,17 85.7872911,17 C88.4352348,17 90.5123375,19.0999323 91.0838684,21.8246742 C93.0047227,19.4409376 96.2255771,17 99.1849828,17 Z M156.074621,17 C158.078312,17 159.258759,18.3049499 158.951706,20.7472853 C158.796474,21.93747 157.92342,22.5072627 156.845324,22.5072627 C155.048382,22.5072627 154.688448,20.5199549 153.404285,20.5199549 C152.375999,20.5199549 150.219123,23.3018192 150.219123,24.9466648 L150.219123,24.9466648 L150.219123,38.4596249 C150.219123,40.9558595 150.988461,41.9788464 154.071613,42.2065435 L154.071613,42.2065435 L154.071613,43 L142,43 L142,42.2065435 C145.081105,41.9788464 145.853172,40.9558595 145.853172,38.4596249 L145.853172,38.4596249 L145.853172,26.0825836 C145.853172,20.6328868 145.081105,19.9519955 142,20.9174164 L142,20.9174164 L142,20.0091948 L150.219123,17 L150.219123,22.1098012 C151.245021,20.1796926 153.506294,17 156.074621,17 Z M27.128956,0 L39.9917092,35.557116 C40.940671,38.1645227 42.0477932,41.9811513 45,41.7918358 L45,41.7918358 L45,43 L31.5570877,42.9989424 L31.5570877,41.7918358 C36.0377014,41.5362422 35.9852193,40.3273729 33.9819744,34.6665929 L33.9819744,34.6665929 L32.0844077,29.2607013 L31.9648057,28.8394126 C28.7237689,29.3957252 23.357029,29.8639021 19.4105186,27.9175132 C19.2152281,27.821269 19.0199376,27.7380689 18.8257182,27.6502857 L18.8257182,27.6502857 L18.2723356,29.2607013 C17.5864983,31.6763247 15.4258071,36.7656328 15.4258071,39.1195612 C15.4258071,41.2182486 17.2176955,41.7918358 19.0099411,41.7918358 L19.0099411,41.7918358 L19.0099411,43 L8.57243163,42.9989424 L8.57243163,41.7918358 C11.840602,41.4727845 13.2122768,36.828738 15.373325,30.6592387 L15.373325,30.6592387 L16.7003721,26.8577695 C7.47316392,24.1266203 0,30.7910897 0,30.7910897 L0,30.7910897 L0,25.9686565 C0.436636703,25.7634766 8.83091485,19.197014 16.7881993,23.1987276 C17.1287973,23.3693583 17.4683243,23.5283551 17.8085653,23.6820638 L17.8085653,23.6820638 L26.0743159,0 L27.128956,0 Z M235.578393,18.0309643 L235.578393,18.8034643 C233.69625,18.86025 233.265893,19.5795357 233.265893,20.2984643 C233.265893,21.1281071 235.899464,25.2191786 236.493036,26.1598929 C237.245536,24.9420357 240.095893,21.5145357 240.095893,20.1316786 C240.095893,19.0259643 238.75125,18.86025 237.944464,18.8034643 L237.944464,18.8034643 L237.944464,18.0309643 L246.44125,18.0309643 L246.44125,18.8034643 C244.395893,18.86025 242.784107,20.2420357 241.708036,21.8459643 L241.708036,21.8459643 L237.568036,27.8181071 L244.075536,38.10275 C245.473036,40.3706071 247.030893,42.0298929 248.859821,42.0298929 L248.859821,42.0298929 L248.859821,42.8041786 L238.052321,42.8031071 L238.052321,42.0298929 C240.043393,41.9191786 241.439464,41.3659643 240.579464,40.0938214 L240.579464,40.0938214 L234.988036,31.9098929 L231.11625,38.1584643 C229.072321,41.4213214 229.072321,42.0298929 231.81375,42.0298929 L231.81375,42.0298929 L231.81375,42.8031071 L224.018036,42.8041786 L224.018036,42.0298929 C225.952321,42.0298929 226.920893,40.64775 228.319464,38.6013214 L228.319464,38.6013214 L234.072679,30.0295357 L229.448036,22.7863214 C228.159107,20.7963214 227.889821,18.97025 224.446607,18.8041786 L224.446607,18.8041786 L224.446607,18.0309643 L235.578393,18.0309643 Z M125.127227,19.6663539 C121.090876,19.6663539 119.019262,23.4996136 119.018538,28.3325421 C118.964193,36.1666299 121.582151,42.3329285 126.763722,42.3329285 C131.0189,42.3329285 132.983274,37.6668507 132.983274,32.8339222 C132.983274,27.8319901 131.345329,19.6663539 125.127227,19.6663539 Z M25.2310323,9.1590624 L19.9046357,24.5288716 C24.6951437,26.2383517 29.0643669,26.3529282 31.2143475,26.2732535 L31.2143475,26.2732535 L25.2310323,9.1590624 Z" id="Combined-Shape" fill="#0B1F2C"></path>
            <polygon id="Fill-18" fill="#BE1622" points="168.000945 35 171 30.500569 168.000945 26 165 30.500569"></polygon>
        </g>
    </g>
</svg>